<svg width="72" height="72" viewBox="0 0 72 72" fill="none" xmlns="http://www.w3.org/2000/svg">
<g clip-path="url(#clip0_2_2219)">
<circle cx="54" cy="18" r="18" fill="url(#paint0_linear_2_2219)"/>
<path fill-rule="evenodd" clip-rule="evenodd" d="M13.5 56H34.5H36H55.5C64.6127 56 72 48.6127 72 39.5C72 30.3873 64.6127 23 55.5 23C55.1382 23 54.7791 23.0116 54.4231 23.0346C50.6566 15.879 43.1481 11 34.5 11C23.6003 11 14.5107 18.7504 12.4418 29.0409C5.48057 29.5806 0 35.4003 0 42.5C0 49.9558 6.04416 56 13.5 56Z" fill="#E7F1FF"/>
<path fill-rule="evenodd" clip-rule="evenodd" d="M13.5 56H34.5H36H55.5C64.6127 56 72 48.6127 72 39.5C72 30.3873 64.6127 23 55.5 23C55.1382 23 54.7791 23.0116 54.4231 23.0346C50.6566 15.879 43.1481 11 34.5 11C23.6003 11 14.5107 18.7504 12.4418 29.0409C5.48057 29.5806 0 35.4003 0 42.5C0 49.9558 6.04416 56 13.5 56Z" fill="url(#paint1_linear_2_2219)"/>
<path fill-rule="evenodd" clip-rule="evenodd" d="M13.5 56H34.5H36H55.5C64.6127 56 72 48.6127 72 39.5C72 30.3873 64.6127 23 55.5 23C55.1382 23 54.7791 23.0116 54.4231 23.0346C50.6566 15.879 43.1481 11 34.5 11C23.6003 11 14.5107 18.7504 12.4418 29.0409C5.48057 29.5806 0 35.4003 0 42.5C0 49.9558 6.04416 56 13.5 56Z" fill="url(#paint2_linear_2_2219)"/>
<path d="M0 42.5C0 35.0442 6.04416 29 13.5 29H18C27.9411 29 36 37.0589 36 47V56H13.5C6.04416 56 0 49.9558 0 42.5Z" fill="url(#paint3_radial_2_2219)"/>
<path d="M12 33.5C12 21.0736 22.0736 11 34.5 11C46.9264 11 57 21.0736 57 33.5C57 45.9264 46.9264 56 34.5 56C22.0736 56 12 45.9264 12 33.5Z" fill="url(#paint4_radial_2_2219)"/>
<circle cx="55.5" cy="39.5" r="16.5" fill="url(#paint5_radial_2_2219)"/>
<path fill-rule="evenodd" clip-rule="evenodd" d="M39 61.4421V45.3318C39 43.4566 41.2709 42.5216 42.5912 43.8531L53.5949 54.9504C55.6697 56.5991 57 59.1444 57 62.0004C57 66.971 52.9706 71.0004 48 71.0004C43.0294 71.0004 39 66.971 39 62.0004C39 61.8105 39.0059 61.6219 39.0175 61.4349L39 61.4421Z" fill="#C4C4C4"/>
<path fill-rule="evenodd" clip-rule="evenodd" d="M39 61.4421V45.3318C39 43.4566 41.2709 42.5216 42.5912 43.8531L53.5949 54.9504C55.6697 56.5991 57 59.1444 57 62.0004C57 66.971 52.9706 71.0004 48 71.0004C43.0294 71.0004 39 66.971 39 62.0004C39 61.8105 39.0059 61.6219 39.0175 61.4349L39 61.4421Z" fill="url(#paint6_linear_2_2219)"/>
</g>
<defs>
<linearGradient id="paint0_linear_2_2219" x1="62.1" y1="25.8" x2="32.7478" y2="-10.0244" gradientUnits="userSpaceOnUse">
<stop stop-color="#EF6D0F"/>
<stop offset="0.56298" stop-color="#EEB82E"/>
<stop offset="1" stop-color="#FEB649" stop-opacity="0.78"/>
</linearGradient>
<linearGradient id="paint1_linear_2_2219" x1="22.5" y1="21.5" x2="36" y2="56" gradientUnits="userSpaceOnUse">
<stop stop-color="#C6D8F5"/>
<stop offset="1" stop-color="#89AFD1" stop-opacity="0"/>
</linearGradient>
<linearGradient id="paint2_linear_2_2219" x1="32.0998" y1="57.5925" x2="31.1538" y2="11" gradientUnits="userSpaceOnUse">
<stop stop-color="#547DDA"/>
<stop offset="0.257422" stop-color="#93C2FF" stop-opacity="0"/>
</linearGradient>
<radialGradient id="paint3_radial_2_2219" cx="0" cy="0" r="1" gradientUnits="userSpaceOnUse" gradientTransform="translate(19.5 56) rotate(-127.875) scale(28.5044 32.9871)">
<stop offset="0.683784" stop-color="#8FABDD" stop-opacity="0"/>
<stop offset="1" stop-color="#5582D3"/>
</radialGradient>
<radialGradient id="paint4_radial_2_2219" cx="0" cy="0" r="1" gradientUnits="userSpaceOnUse" gradientTransform="translate(34.5 51.5) rotate(-90) scale(40.5)">
<stop offset="0.598765" stop-color="#C7DFFF" stop-opacity="0"/>
<stop offset="1" stop-color="#6B97E6"/>
</radialGradient>
<radialGradient id="paint5_radial_2_2219" cx="0" cy="0" r="1" gradientUnits="userSpaceOnUse" gradientTransform="translate(46.7 51.6) rotate(-56.3099) scale(31.7288)">
<stop offset="0.47771" stop-color="#8FABDD" stop-opacity="0"/>
<stop offset="1" stop-color="#5582D3"/>
</radialGradient>
<linearGradient id="paint6_linear_2_2219" x1="52.5008" y1="69.1685" x2="36.57" y2="51.2851" gradientUnits="userSpaceOnUse">
<stop stop-color="#0066FF"/>
<stop offset="1" stop-color="#65ACFF"/>
</linearGradient>
<clipPath id="clip0_2_2219">
<rect width="72" height="72" fill="white"/>
</clipPath>
</defs>
</svg>
